<svg xmlns="http://www.w3.org/2000/svg" viewBox="0 0 200 200"><defs><style>.cls-1{fill:#29c13e;}.cls-1,.cls-2{fill-rule:evenodd;}.cls-2{fill:#242935;}</style></defs><title>Logo</title><g id="Layer_2" data-name="Layer 2"><path class="cls-1" d="M41.17,52.09V191.77h70.34c49.42,0,70.94-51.28,39.06-74.82,23.11-25.54,1.19-64.86-36.86-64.86Z"/><path class="cls-2" d="M81.92,159.5v32.27h8.34V98.41h69.37a34.79,34.79,0,0,0,.25-8.34H90.26v-38H81.92v38H41.17v8.34H81.92V159.5Z"/><path class="cls-2" d="M82.33,48.18c-1.5-9.56-6.25-29.64-20-34.23-4.12-1.38-6.66-1.32-7.87-.31a3.77,3.77,0,0,0-1,2.94,17.64,17.64,0,0,0,1.69,6.82C59,32.24,68.69,42.92,82.33,48.18ZM49,26.06a24.05,24.05,0,0,1-2.24-9.51,10.09,10.09,0,0,1,3.37-8.06c3-2.49,7.67-3.12,14.29-.91C77.53,12,83.94,26.56,87,38a56.2,56.2,0,0,1,6.65-9.82c5.37-6.48,12.61-8.24,18.3-7a12.94,12.94,0,0,1,8.56,5.7c1.83,3,2.09,6.84-.09,10.89-3.92,7.31-20.49,17-34.59,17S53.56,36.57,49,26.06Zm61.58,1.66c-3.58-.75-8.21.45-11.78,4.75-5.85,7-8,12.55-8.78,16,15-4.49,22.15-9.59,24.48-13.93a4.22,4.22,0,0,0,.25-4.27A6.25,6.25,0,0,0,110.58,27.72Z"/></g></svg>