<svg id="Layer_1" data-name="Layer 1" xmlns="http://www.w3.org/2000/svg" viewBox="0 0 200 200"><defs><style>.cls-1{fill:#29c13e;}.cls-1,.cls-2{fill-rule:evenodd;}.cls-2{fill:#242935;}</style></defs><title>logo-mask</title><path class="cls-1" d="M52.05,63.85V171.49h54.21c38.08,0,54.67-39.52,30.09-57.66,17.82-19.68.93-50-28.4-50Z"/><path class="cls-2" d="M83.46,146.62v24.87h6.42V99.55h53.45a26.65,26.65,0,0,0,.2-6.43H89.88V63.85H83.46V93.12H52.05v6.43H83.46v47.07Z"/><path class="cls-2" d="M83.77,60.83C82.61,53.47,79,38,68.34,34.46c-3.17-1.06-5.13-1-6.06-.24a2.92,2.92,0,0,0-.75,2.27,13.6,13.6,0,0,0,1.3,5.25c3,6.81,10.43,15,20.94,19.09Zm-25.69-17a18.59,18.59,0,0,1-1.72-7.33A7.81,7.81,0,0,1,59,30.25c2.28-1.92,5.92-2.4,11-.7C80.07,32.92,85,44.18,87.37,53a43.74,43.74,0,0,1,5.12-7.57c4.14-5,9.72-6.34,14.1-5.42a10,10,0,0,1,6.6,4.39,8.17,8.17,0,0,1-.06,8.4c-3,5.62-15.8,13.1-26.66,13.1s-24.87-14-28.39-22.1Zm47.46,1.28c-2.76-.58-6.32.35-9.08,3.66-4.5,5.43-6.17,9.67-6.77,12.34,11.57-3.46,17.07-7.39,18.87-10.74a3.23,3.23,0,0,0,.19-3.28A4.8,4.8,0,0,0,105.54,45.07Z"/></svg>